<svg xmlns="http://www.w3.org/2000/svg" width="24" height="24" viewBox="0 0 24 24" fill="none">
  <path fill="#fff" d="M12 0C5.373 0 0 5.373 0 12c0 6.628 5.373 12 12 12s12-5.372 12-12C24 5.373 18.627 0 12 0zm5.463 17.25a.75.75 0 01-1.037.25c-2.84-1.74-6.42-2.135-10.626-1.174a.75.75 0 11-.33-1.463c4.55-1.027 8.5-.57 11.64 1.372a.75.75 0 01.353 1.015zM17.8 14.1a.9.9 0 01-1.245.3c-2.43-1.486-6.14-1.92-9.016-1.056a.9.9 0 01-1.139-.595.9.9 0 01.595-1.139c3.315-.973 7.5-.49 10.3 1.205a.9.9 0 01.505 1.285zM17.95 10.9a1.05 1.05 0 01-1.448.35c-2.18-1.33-5.51-1.63-8.55-.9a1.05 1.05 0 01-.5-2.045c3.535-.864 7.37-.51 10 1.095a1.05 1.05 0 01.498 1.5z"/>
</svg>
